<?xml version="1.0" encoding="UTF-8" standalone="no"?>
<!-- Created with Inkscape (http://www.inkscape.org/) -->

<svg
   xmlns:dc="http://purl.org/dc/elements/1.1/"
   xmlns:cc="http://creativecommons.org/ns#"
   xmlns:rdf="http://www.w3.org/1999/02/22-rdf-syntax-ns#"
   xmlns:svg="http://www.w3.org/2000/svg"
   xmlns="http://www.w3.org/2000/svg"
   xmlns:sodipodi="http://sodipodi.sourceforge.net/DTD/sodipodi-0.dtd"
   xmlns:inkscape="http://www.inkscape.org/namespaces/inkscape"
   width="31.429686mm"
   height="32.488029mm"
   viewBox="0 0 31.429686 32.48803"
   version="1.1"
   id="svg8"
   inkscape:version="0.92.4 (5da689c313, 2019-01-14)"
   sodipodi:docname="zoomIcon.svg">
  <defs
     id="defs2" />
  <sodipodi:namedview
     id="base"
     pagecolor="#ffffff"
     bordercolor="#666666"
     borderopacity="1.0"
     inkscape:pageopacity="0.0"
     inkscape:pageshadow="2"
     inkscape:zoom="2.8284271"
     inkscape:cx="-68.949365"
     inkscape:cy="73.403514"
     inkscape:document-units="mm"
     inkscape:current-layer="layer1"
     showgrid="false"
     fit-margin-top="0"
     fit-margin-left="0"
     fit-margin-right="0"
     fit-margin-bottom="0">
    <inkscape:grid
       type="xygrid"
       id="grid4753"
       originx="-3.0262909"
       originy="25.233649" />
  </sodipodi:namedview>
  <metadata
     id="metadata5">
    <rdf:RDF>
      <cc:Work
         rdf:about="">
        <dc:format>image/svg+xml</dc:format>
        <dc:type
           rdf:resource="http://purl.org/dc/dcmitype/StillImage" />
        <dc:title />
      </cc:Work>
    </rdf:RDF>
  </metadata>
  <g
     inkscape:label="Layer 1"
     inkscape:groupmode="layer"
     id="layer1"
     transform="translate(-3.2955987,-289.12796)">
    <g
       aria-label="Reset"
       style="font-style:normal;font-variant:normal;font-weight:normal;font-stretch:normal;font-size:2.82222223px;line-height:1.25;font-family:Arial;-inkscape-font-specification:Arial;font-variant-ligatures:normal;font-variant-position:normal;font-variant-caps:normal;font-variant-numeric:normal;font-variant-alternates:normal;font-feature-settings:normal;text-indent:0;text-align:start;text-decoration:none;text-decoration-line:none;text-decoration-style:solid;text-decoration-color:#000000;letter-spacing:0px;word-spacing:0px;text-transform:none;writing-mode:lr-tb;direction:ltr;text-orientation:mixed;dominant-baseline:auto;baseline-shift:baseline;text-anchor:start;white-space:normal;shape-padding:0;opacity:1;vector-effect:none;fill:#000080;fill-opacity:1;stroke:none;stroke-width:0.26458332;stroke-linecap:butt;stroke-linejoin:miter;stroke-miterlimit:4;stroke-dasharray:none;stroke-dashoffset:0;stroke-opacity:1"
       id="text826"
       transform="matrix(0.67602992,0,0,0.67602992,5.8337415,99.142948)">
      <path
         d="m 11.465428,307.30371 v -4.54546 h 2.01538 q 0.607715,0 0.923975,0.12403 0.31626,0.12092 0.505396,0.43098 0.189135,0.31006 0.189135,0.68523 0,0.48369 -0.313159,0.81545 -0.313159,0.33176 -0.967383,0.42168 0.238745,0.11472 0.362769,0.22634 0.26355,0.24185 0.499194,0.60462 l 0.79065,1.23713 h -0.756543 l -0.601514,-0.94568 q -0.26355,-0.40928 -0.434082,-0.62632 -0.170532,-0.21704 -0.306958,-0.30385 -0.133325,-0.0868 -0.272852,-0.12093 -0.102319,-0.0217 -0.334863,-0.0217 h -0.697632 v 2.01848 z m 0.601513,-2.53938 h 1.292945 q 0.412377,0 0.644921,-0.0837 0.232544,-0.0868 0.353467,-0.27286 0.120923,-0.18913 0.120923,-0.40927 0,-0.32246 -0.235644,-0.5302 -0.232544,-0.20774 -0.73794,-0.20774 h -1.438672 z"
         style="font-size:6.3499999px;stroke-width:0.26458332;fill:#000080"
         id="path828"
         inkscape:connector-curvature="0" />
      <path
         d="m 18.227805,306.24331 0.576709,0.0713 q -0.136425,0.5054 -0.505395,0.78445 -0.36897,0.27905 -0.942578,0.27905 -0.722437,0 -1.147217,-0.44338 -0.42168,-0.44648 -0.42168,-1.24953 0,-0.83096 0.427881,-1.28985 0.427881,-0.45889 1.11001,-0.45889 0.660425,0 1.079004,0.44959 0.418579,0.44958 0.418579,1.26504 0,0.0496 -0.0031,0.14883 h -2.455664 q 0.03101,0.5426 0.306958,0.83095 0.275953,0.28836 0.68833,0.28836 0.306958,0 0.523999,-0.16123 0.217041,-0.16123 0.344165,-0.5147 z m -1.832446,-0.90227 h 1.838648 q -0.03721,-0.41548 -0.21084,-0.62322 -0.266651,-0.32246 -0.691431,-0.32246 -0.384472,0 -0.648022,0.25735 -0.26045,0.25735 -0.288355,0.68833 z"
         style="font-size:6.3499999px;stroke-width:0.26458332;fill:#000080"
         id="path830"
         inkscape:connector-curvature="0" />
      <path
         d="m 19.285105,306.32083 0.551905,-0.0868 q 0.04651,0.33176 0.257348,0.50849 0.213941,0.17674 0.595313,0.17674 0.384472,0 0.570508,-0.15503 0.186035,-0.15813 0.186035,-0.36897 0,-0.18914 -0.164331,-0.29766 -0.114722,-0.0744 -0.570508,-0.18913 -0.613916,-0.15503 -0.852661,-0.26665 -0.235645,-0.11472 -0.359668,-0.31316 -0.120923,-0.20154 -0.120923,-0.44339 0,-0.22014 0.09922,-0.40617 0.102319,-0.18914 0.275952,-0.31316 0.130224,-0.0961 0.353467,-0.16123 0.226342,-0.0682 0.483691,-0.0682 0.387573,0 0.679028,0.11163 0.294556,0.11162 0.434082,0.30385 0.139527,0.18914 0.192237,0.5085 l -0.545703,0.0744 q -0.03721,-0.25424 -0.217041,-0.39687 -0.176734,-0.14263 -0.502295,-0.14263 -0.384473,0 -0.548804,0.12713 -0.164331,0.12712 -0.164331,0.29765 0,0.10852 0.06821,0.19534 0.06821,0.0899 0.21394,0.14883 0.08372,0.031 0.492993,0.14262 0.592212,0.15813 0.824756,0.26045 0.235645,0.0992 0.36897,0.29146 0.133325,0.19223 0.133325,0.47749 0,0.27905 -0.164331,0.5271 -0.16123,0.24494 -0.468188,0.38137 -0.306958,0.13332 -0.694532,0.13332 -0.641821,0 -0.979785,-0.26665 -0.334863,-0.26665 -0.427881,-0.79064 z"
         style="font-size:6.3499999px;stroke-width:0.26458332;fill:#000080"
         id="path832"
         inkscape:connector-curvature="0" />
      <path
         d="m 24.937474,306.24331 0.576709,0.0713 q -0.136426,0.5054 -0.505396,0.78445 -0.36897,0.27905 -0.942578,0.27905 -0.722437,0 -1.147217,-0.44338 -0.421679,-0.44648 -0.421679,-1.24953 0,-0.83096 0.42788,-1.28985 0.427881,-0.45889 1.11001,-0.45889 0.660425,0 1.079004,0.44959 0.418579,0.44958 0.418579,1.26504 0,0.0496 -0.0031,0.14883 h -2.455664 q 0.03101,0.5426 0.306958,0.83095 0.275952,0.28836 0.68833,0.28836 0.306958,0 0.523999,-0.16123 0.217041,-0.16123 0.344165,-0.5147 z m -1.832447,-0.90227 h 1.838648 q -0.03721,-0.41548 -0.21084,-0.62322 -0.26665,-0.32246 -0.691431,-0.32246 -0.384472,0 -0.648022,0.25735 -0.260449,0.25735 -0.288355,0.68833 z"
         style="font-size:6.3499999px;stroke-width:0.26458332;fill:#000080"
         id="path834"
         inkscape:connector-curvature="0" />
      <path
         d="m 27.436546,306.80452 0.08062,0.49299 q -0.235644,0.0496 -0.42168,0.0496 -0.303857,0 -0.471289,-0.0961 -0.167431,-0.0961 -0.235644,-0.25115 -0.06821,-0.15813 -0.06821,-0.66042 v -1.89446 h -0.409277 v -0.43408 h 0.409277 v -0.81546 l 0.555005,-0.33486 v 1.15032 h 0.561206 v 0.43408 H 26.87534 v 1.92546 q 0,0.23875 0.0279,0.30696 0.03101,0.0682 0.09612,0.10852 0.06821,0.0403 0.192237,0.0403 0.09302,0 0.244946,-0.0217 z"
         style="font-size:6.3499999px;stroke-width:0.26458332;fill:#000080"
         id="path836"
         inkscape:connector-curvature="0" />
    </g>
    <path
       style="opacity:0.1;vector-effect:none;fill:#000000;fill-opacity:1;stroke:none;stroke-width:0.53318697;stroke-linecap:round;stroke-linejoin:miter;stroke-miterlimit:4;stroke-dasharray:none;stroke-dashoffset:0;stroke-opacity:1"
       d="m 18.743848,289.12796 -6.931432,7.46463 h 14.396051 z"
       id="up_btn"
       inkscape:connector-curvature="0"
       onclick=""
       inkscape:label="#path4755" />
    <path
       style="opacity:0.08999999;vector-effect:none;fill:#000000;fill-opacity:1;stroke:none;stroke-width:0.53318697;stroke-linecap:round;stroke-linejoin:miter;stroke-miterlimit:4;stroke-dasharray:none;stroke-dashoffset:0;stroke-opacity:1"
       d="m 19.277042,321.61599 6.931425,-7.46463 H 11.812416 Z"
       id="down_btn"
       inkscape:connector-curvature="0"
       onclick=""
       inkscape:label="#path4755-6"
       onmouseover="" />
    <rect
       style="opacity:0.1;vector-effect:none;fill:#000000;fill-opacity:1;fill-rule:evenodd;stroke:none;stroke-width:0.18503751;stroke-linecap:round;stroke-linejoin:miter;stroke-miterlimit:4;stroke-dasharray:none;stroke-dashoffset:0;stroke-opacity:1;paint-order:fill markers stroke"
       id="reset_btn"
       width="14.68646"
       height="10.383421"
       x="11.667212"
       y="300.19434"
       inkscape:label="#rect822" />
  </g>
</svg>
