<?xml version="1.0" encoding="UTF-8" standalone="no"?>
<!-- Created with Inkscape (http://www.inkscape.org/) -->

<svg
   xmlns:dc="http://purl.org/dc/elements/1.1/"
   xmlns:cc="http://creativecommons.org/ns#"
   xmlns:rdf="http://www.w3.org/1999/02/22-rdf-syntax-ns#"
   xmlns:svg="http://www.w3.org/2000/svg"
   xmlns="http://www.w3.org/2000/svg"
   xmlns:sodipodi="http://sodipodi.sourceforge.net/DTD/sodipodi-0.dtd"
   xmlns:inkscape="http://www.inkscape.org/namespaces/inkscape"
   width="87.442345mm"
   height="116.45667mm"
   viewBox="0 0 87.442345 116.45667"
   version="1.1"
   id="svg8971"
   inkscape:version="0.92.4 (5da689c313, 2019-01-14)"
   sodipodi:docname="machineLineArt.svg">
  <defs
     id="defs8965">
    <clipPath
       clipPathUnits="userSpaceOnUse"
       id="clipPath64">
      <path
         d="M 323.033,509.95 H 576 V 173.65 H 323.033"
         id="path62"
         inkscape:connector-curvature="0" />
    </clipPath>
  </defs>
  <sodipodi:namedview
     id="base"
     pagecolor="#ffffff"
     bordercolor="#666666"
     borderopacity="1.0"
     inkscape:pageopacity="0.0"
     inkscape:pageshadow="2"
     inkscape:zoom="0.35"
     inkscape:cx="-213.32605"
     inkscape:cy="91.504183"
     inkscape:document-units="mm"
     inkscape:current-layer="layer1"
     showgrid="false"
     fit-margin-top="0"
     fit-margin-left="0"
     fit-margin-right="0"
     fit-margin-bottom="0"
     inkscape:window-width="1600"
     inkscape:window-height="837"
     inkscape:window-x="-8"
     inkscape:window-y="-8"
     inkscape:window-maximized="1" />
  <metadata
     id="metadata8968">
    <rdf:RDF>
      <cc:Work
         rdf:about="">
        <dc:format>image/svg+xml</dc:format>
        <dc:type
           rdf:resource="http://purl.org/dc/dcmitype/StillImage" />
        <dc:title></dc:title>
      </cc:Work>
    </rdf:RDF>
  </metadata>
  <g
     inkscape:label="Layer 1"
     inkscape:groupmode="layer"
     id="layer1"
     transform="translate(-39.433588,-56.587146)">
    <g
       style="display:inline"
       transform="matrix(0.35277777,0,0,-0.35277777,-75.424477,235.15162)"
       id="washerLineArt"
       inkscape:label="#g1302"
       inkscape:export-filename="C:\Users\inter\OneDrive\Desktop\Top_Load_Diagram\images\washerLineArt.png"
       inkscape:export-xdpi="96"
       inkscape:export-ydpi="96">
      <path
         inkscape:connector-curvature="0"
         id="path52"
         style="fill:#d4d6d7;fill-opacity:1;fill-rule:nonzero;stroke:none"
         d="m 436.895,484.521 c -1.222,-4.702 -5.707,-7.604 -10.013,-6.484 -4.305,1.12 -6.804,5.841 -5.579,10.542 1.222,4.702 5.707,7.605 10.013,6.484 4.306,-1.12 6.804,-5.841 5.579,-10.542" />
      <path
         inkscape:connector-curvature="0"
         id="path54"
         style="fill:#d4d6d7;fill-opacity:1;fill-rule:nonzero;stroke:none"
         d="m 456.655,482.154 c -1.222,-4.702 -5.707,-7.604 -10.014,-6.484 -4.305,1.12 -6.804,5.841 -5.579,10.543 1.222,4.701 5.707,7.604 10.014,6.483 4.304,-1.12 6.803,-5.841 5.579,-10.542" />
      <path
         inkscape:connector-curvature="0"
         id="path56"
         style="fill:#d4d6d7;fill-opacity:1;fill-rule:nonzero;stroke:none"
         d="m 477.123,480.261 c -1.221,-4.702 -5.707,-7.604 -10.013,-6.484 -4.306,1.12 -6.804,5.841 -5.579,10.542 1.222,4.702 5.707,7.605 10.013,6.484 4.305,-1.12 6.804,-5.841 5.579,-10.542" />
      <g
         id="g58">
        <g
           clip-path="url(#clipPath64)"
           id="g60">
          <path
             inkscape:connector-curvature="0"
             id="path66"
             style="fill:none;stroke:#000000;stroke-width:1.70000005;stroke-linecap:round;stroke-linejoin:miter;stroke-miterlimit:4;stroke-dasharray:none;stroke-opacity:1"
             d="m 567.6,489.55 c 3.014,-0.603 5,-2.333 5,-9.667 l -1.334,-6 c 0,0 -0.81,-29.61 -0.717,-29.942 0.022,-0.077 0.035,-0.152 0.035,-0.223 0,-0.377 -0.225,-0.903 -0.225,-0.903 l -0.462,-1.054 -8.964,-174.211 -56,-90.5 -167.649,48.693 -10.851,203.807 c 0,0 0.109,2.291 1,2.5 0,0 72.759,31.291 74.259,31.891 1.5,0.6 2.7,2.55 2.85,3.6 0.15,1.05 0.233,3.933 0.233,3.933 l 1.05,0.45 c 0,0 -0.75,0.75 -0.6,1.2 0.15,0.45 4.041,19.759 6.708,28.092 0.667,2.001 2.347,3.675 6.334,4 C 434.6,506.55 545.933,493.883 567.6,489.55 Z" />
        </g>
      </g>
      <path
         inkscape:connector-curvature="0"
         id="path68"
         style="fill:none;stroke:#000000;stroke-width:0.75;stroke-linecap:round;stroke-linejoin:miter;stroke-miterlimit:4;stroke-dasharray:none;stroke-opacity:1"
         d="m 406.266,471.883 156.667,-19.333 1.25,-1.25 m 5.667,-8.583 -55.333,-52.25 c 0,0 -1.257,0.779 -2.627,0.623 -0.225,-0.025 -0.461,-0.04 -0.707,-0.04 -1.75,0 -181.75,29.5 -181.75,29.5 l -2,1.25 m 94.25,37.25 106.75,-13.5 c 0,0 4,-1.25 2.75,-2.75 l -36.5,-26.25 c 0,0 -4,-1.5 -10.75,-0.75 l -116.75,16.75 c 0,0 -2.75,1 -0.5,2.25 l 50.5,23.5 c 0,0 2.109,1.123 4.5,0.75 z m 109.75,-15.25 v -2 m -165.75,-7.5 c -2.5,-1 0.5,-2.5 0.5,-2.5 l 70.5,-10.25 c 3.25,-0.75 2,-3.25 4,-3.25 2,0 43.5,-6.25 43.5,-6.25 6.25,-0.75 12.5,2.5 12.5,2.5 l 37.25,28.25 c 2.5,2.25 -1.064,3.75 -1.064,3.75 0,0 -107.163,13.82 -108.5,14 -1.337,0.18 -2.98,-0.386 -5.73,-1.636" />
      <path
         inkscape:connector-curvature="0"
         id="path70"
         style="fill:none;stroke:#000000;stroke-width:0.5;stroke-linecap:round;stroke-linejoin:miter;stroke-miterlimit:4;stroke-dasharray:none;stroke-opacity:1"
         d="m 570.6,487.383 -8.5,-39.833 c 0,0 -0.167,-2 -1,-3 -0.833,-1 -2,-2.167 -2,-2.167 L 514.433,402.55 c 0,0 -2.666,-1 -4.833,-0.667 l -180.398,27.916 c 0,0 -3.192,1.388 -1.769,2.251" />
      <path
         inkscape:connector-curvature="0"
         id="path72-7"
         style="fill:#ffffff;fill-opacity:1;fill-rule:nonzero;stroke:none"
         d="m 544.37,473.935 c -0.671,-3.881 -4.099,-6.528 -7.654,-5.913 -3.555,0.616 -5.89,4.262 -5.219,8.143 0.672,3.881 4.1,6.528 7.655,5.913 3.554,-0.616 5.89,-4.262 5.218,-8.143" />
      <path
         inkscape:connector-curvature="0"
         id="path74"
         style="fill:none;stroke:#000000;stroke-width:0.5;stroke-linecap:round;stroke-linejoin:miter;stroke-miterlimit:4;stroke-dasharray:none;stroke-opacity:1"
         d="m 544.37,473.935 c -0.671,-3.881 -4.099,-6.528 -7.654,-5.913 -3.555,0.616 -5.89,4.262 -5.219,8.143 0.672,3.881 4.1,6.528 7.655,5.913 3.554,-0.616 5.89,-4.262 5.218,-8.143 z" />
      <path
         inkscape:connector-curvature="0"
         id="path76"
         style="fill:#ffffff;fill-opacity:1;fill-rule:nonzero;stroke:none"
         d="m 543.37,474.435 c -0.671,-3.881 -4.099,-6.528 -7.654,-5.913 -3.555,0.616 -5.89,4.262 -5.219,8.143 0.672,3.881 4.1,6.528 7.655,5.913 3.554,-0.616 5.89,-4.262 5.218,-8.143" />
      <path
         inkscape:connector-curvature="0"
         id="path78"
         style="fill:none;stroke:#000000;stroke-width:0.5;stroke-linecap:round;stroke-linejoin:miter;stroke-miterlimit:4;stroke-dasharray:none;stroke-opacity:1"
         d="m 543.37,474.435 c -0.671,-3.881 -4.099,-6.528 -7.654,-5.913 -3.555,0.616 -5.89,4.262 -5.219,8.143 0.672,3.881 4.1,6.528 7.655,5.913 3.554,-0.616 5.89,-4.262 5.218,-8.143 z" />
      <path
         inkscape:connector-curvature="0"
         id="path80"
         style="fill:#ffffff;fill-opacity:1;fill-rule:nonzero;stroke:none"
         d="m 475.207,480.923 c -0.879,-3.381 -4.104,-5.469 -7.202,-4.663 -3.096,0.806 -4.893,4.201 -4.012,7.582 0.879,3.382 4.104,5.47 7.202,4.664 3.096,-0.806 4.893,-4.201 4.012,-7.583" />
      <path
         inkscape:connector-curvature="0"
         id="path82"
         style="fill:none;stroke:#000000;stroke-width:0.5;stroke-linecap:round;stroke-linejoin:miter;stroke-miterlimit:4;stroke-dasharray:none;stroke-opacity:1"
         d="m 475.207,480.923 c -0.879,-3.381 -4.104,-5.469 -7.202,-4.663 -3.096,0.806 -4.893,4.201 -4.012,7.582 0.879,3.382 4.104,5.47 7.202,4.664 3.096,-0.806 4.893,-4.201 4.012,-7.583 z" />
      <path
         inkscape:connector-curvature="0"
         id="path84"
         style="fill:#ffffff;fill-opacity:1;fill-rule:nonzero;stroke:none"
         d="m 474.541,481.757 c -0.878,-3.382 -4.104,-5.469 -7.202,-4.664 -3.096,0.806 -4.893,4.202 -4.012,7.583 0.879,3.382 4.104,5.469 7.202,4.664 3.096,-0.807 4.893,-4.202 4.012,-7.583" />
      <path
         inkscape:connector-curvature="0"
         id="path86"
         style="fill:none;stroke:#000000;stroke-width:0.5;stroke-linecap:round;stroke-linejoin:miter;stroke-miterlimit:4;stroke-dasharray:none;stroke-opacity:1"
         d="m 474.541,481.757 c -0.878,-3.382 -4.104,-5.469 -7.202,-4.664 -3.096,0.806 -4.893,4.202 -4.012,7.583 0.879,3.382 4.104,5.469 7.202,4.664 3.096,-0.807 4.893,-4.202 4.012,-7.583 z" />
      <path
         inkscape:connector-curvature="0"
         id="path88"
         style="fill:#ffffff;fill-opacity:1;fill-rule:nonzero;stroke:none"
         d="m 473.933,486.716 c 0,0 -1.333,2.5 -3.333,0.667 0,0 -4.167,-2.167 -6.333,-5 -0.858,-1.124 -0.167,-2.667 -0.167,-2.667" />
      <path
         inkscape:connector-curvature="0"
         id="path90"
         style="fill:none;stroke:#000000;stroke-width:0.5;stroke-linecap:round;stroke-linejoin:miter;stroke-miterlimit:4;stroke-dasharray:none;stroke-opacity:1"
         d="m 473.933,486.716 c 0,0 -1.333,2.5 -3.333,0.667 0,0 -4.167,-2.167 -6.333,-5 -0.858,-1.124 -0.167,-2.667 -0.167,-2.667 m 69,-6.333 c 0,0 6.667,0.833 8.667,0.667" />
      <path
         inkscape:connector-curvature="0"
         id="path92"
         style="fill:#ffffff;fill-opacity:1;fill-rule:nonzero;stroke:none"
         d="m 542.767,477.883 c -0.833,1.5 -2.834,1.167 -2.834,1.167 l -8.667,-0.666 c 0,0 -0.832,-0.834 -0.666,-1.5" />
      <path
         inkscape:connector-curvature="0"
         id="path94"
         style="fill:none;stroke:#000000;stroke-width:0.5;stroke-linecap:round;stroke-linejoin:miter;stroke-miterlimit:4;stroke-dasharray:none;stroke-opacity:1"
         d="m 542.767,477.883 c -0.833,1.5 -2.834,1.167 -2.834,1.167 l -8.667,-0.666 c 0,0 -0.832,-0.834 -0.666,-1.5 m 1.833,-0.668 9.667,0.667" />
      <path
         inkscape:connector-curvature="0"
         id="path96"
         style="fill:#ffffff;fill-opacity:1;fill-rule:nonzero;stroke:none"
         d="m 473.6,486.216 c 0,0 -8,-5 -8.833,-6.333" />
      <path
         inkscape:connector-curvature="0"
         id="path98"
         style="fill:none;stroke:#000000;stroke-width:0.25;stroke-linecap:round;stroke-linejoin:miter;stroke-miterlimit:4;stroke-dasharray:none;stroke-opacity:1"
         d="m 473.6,486.216 c 0,0 -8,-5 -8.833,-6.333" />
      <path
         inkscape:connector-curvature="0"
         id="path100"
         style="fill:#ffffff;fill-opacity:1;fill-rule:nonzero;stroke:none"
         d="m 454.54,482.757 c -0.879,-3.382 -4.104,-5.469 -7.202,-4.664 -3.096,0.806 -4.893,4.202 -4.012,7.583 0.878,3.382 4.104,5.469 7.202,4.664 3.096,-0.807 4.893,-4.202 4.012,-7.583" />
      <path
         inkscape:connector-curvature="0"
         id="path102"
         style="fill:none;stroke:#000000;stroke-width:0.5;stroke-linecap:round;stroke-linejoin:miter;stroke-miterlimit:4;stroke-dasharray:none;stroke-opacity:1"
         d="m 454.54,482.757 c -0.879,-3.382 -4.104,-5.469 -7.202,-4.664 -3.096,0.806 -4.893,4.202 -4.012,7.583 0.878,3.382 4.104,5.469 7.202,4.664 3.096,-0.807 4.893,-4.202 4.012,-7.583 z" />
      <path
         inkscape:connector-curvature="0"
         id="path104"
         style="fill:#ffffff;fill-opacity:1;fill-rule:nonzero;stroke:none"
         d="m 453.874,483.59 c -0.879,-3.381 -4.104,-5.469 -7.202,-4.663 -3.096,0.806 -4.893,4.201 -4.012,7.582 0.879,3.382 4.104,5.47 7.202,4.664 3.096,-0.806 4.893,-4.201 4.012,-7.583" />
      <path
         inkscape:connector-curvature="0"
         id="path106"
         style="fill:none;stroke:#000000;stroke-width:0.5;stroke-linecap:round;stroke-linejoin:miter;stroke-miterlimit:4;stroke-dasharray:none;stroke-opacity:1"
         d="m 453.874,483.59 c -0.879,-3.381 -4.104,-5.469 -7.202,-4.663 -3.096,0.806 -4.893,4.201 -4.012,7.582 0.879,3.382 4.104,5.47 7.202,4.664 3.096,-0.806 4.893,-4.201 4.012,-7.583 z" />
      <path
         inkscape:connector-curvature="0"
         id="path108"
         style="fill:#ffffff;fill-opacity:1;fill-rule:nonzero;stroke:none"
         d="m 450.1,489.883 -1,2 c 0,0 -1.667,1.167 -2.333,-1.667 0,0 -2.167,-5.333 -2.167,-8.5 0,0 0,-1.833 2.167,-2.666" />
      <path
         inkscape:connector-curvature="0"
         id="path110"
         style="fill:none;stroke:#000000;stroke-width:0.5;stroke-linecap:round;stroke-linejoin:miter;stroke-miterlimit:4;stroke-dasharray:none;stroke-opacity:1"
         d="m 450.1,489.883 -1,2 c 0,0 -1.667,1.167 -2.333,-1.667 0,0 -2.167,-5.333 -2.167,-8.5 0,0 0,-1.833 2.167,-2.666" />
      <path
         inkscape:connector-curvature="0"
         id="path112-6"
         style="fill:#ffffff;fill-opacity:1;fill-rule:nonzero;stroke:none"
         d="m 448.361,490.877 c -0.188,-0.289 -0.387,-0.669 -0.595,-1.161 0,0 -1.951,-4.805 -2.15,-8.001" />
      <path
         inkscape:connector-curvature="0"
         id="path114"
         style="fill:none;stroke:#000000;stroke-width:0.5;stroke-linecap:round;stroke-linejoin:miter;stroke-miterlimit:4;stroke-dasharray:none;stroke-opacity:1"
         d="m 448.361,490.877 c -0.188,-0.289 -0.387,-0.669 -0.595,-1.161 0,0 -1.951,-4.805 -2.15,-8.001" />
      <path
         inkscape:connector-curvature="0"
         id="path116"
         style="fill:#ffffff;fill-opacity:1;fill-rule:nonzero;stroke:none"
         d="m 450.1,490.216 c 0,0 0.333,-1.333 0,-2 0,0 -1.667,-5.833 -1.667,-7.5" />
      <path
         inkscape:connector-curvature="0"
         id="path118"
         style="fill:none;stroke:#000000;stroke-width:0.25;stroke-linecap:round;stroke-linejoin:miter;stroke-miterlimit:4;stroke-dasharray:none;stroke-opacity:1"
         d="m 450.1,490.216 c 0,0 0.333,-1.333 0,-2 0,0 -1.667,-5.833 -1.667,-7.5" />
      <path
         inkscape:connector-curvature="0"
         id="path120"
         style="fill:#ffffff;fill-opacity:1;fill-rule:nonzero;stroke:none"
         d="m 412.684,475.867 c -0.286,-1.103 -1.338,-1.784 -2.349,-1.521 -1.009,0.263 -1.596,1.37 -1.309,2.473 0.287,1.104 1.34,1.784 2.35,1.521 1.01,-0.262 1.596,-1.37 1.308,-2.473" />
      <path
         inkscape:connector-curvature="0"
         id="path122"
         style="fill:none;stroke:#000000;stroke-width:0.25;stroke-linecap:round;stroke-linejoin:miter;stroke-miterlimit:4;stroke-dasharray:none;stroke-opacity:1"
         d="m 412.684,475.867 c -0.286,-1.103 -1.338,-1.784 -2.349,-1.521 -1.009,0.263 -1.596,1.37 -1.309,2.473 0.287,1.104 1.34,1.784 2.35,1.521 1.01,-0.262 1.596,-1.37 1.308,-2.473 z" />
      <path
         inkscape:connector-curvature="0"
         id="path124"
         style="fill:#ffffff;fill-opacity:1;fill-rule:nonzero;stroke:none"
         d="m 434.706,485.09 c -0.878,-3.381 -4.104,-5.469 -7.202,-4.663 -3.096,0.806 -4.893,4.201 -4.012,7.582 0.879,3.382 4.104,5.47 7.202,4.664 3.096,-0.806 4.893,-4.201 4.012,-7.583" />
      <path
         inkscape:connector-curvature="0"
         id="path126"
         style="fill:none;stroke:#000000;stroke-width:0.5;stroke-linecap:round;stroke-linejoin:miter;stroke-miterlimit:4;stroke-dasharray:none;stroke-opacity:1"
         d="m 434.706,485.09 c -0.878,-3.381 -4.104,-5.469 -7.202,-4.663 -3.096,0.806 -4.893,4.201 -4.012,7.582 0.879,3.382 4.104,5.47 7.202,4.664 3.096,-0.806 4.893,-4.201 4.012,-7.583 z" />
      <path
         inkscape:connector-curvature="0"
         id="path128"
         style="fill:#ffffff;fill-opacity:1;fill-rule:nonzero;stroke:none"
         d="m 434.04,485.924 c -0.879,-3.382 -4.104,-5.469 -7.202,-4.664 -3.096,0.806 -4.893,4.202 -4.012,7.583 0.878,3.382 4.104,5.469 7.202,4.663 3.096,-0.806 4.893,-4.201 4.012,-7.582" />
      <path
         inkscape:connector-curvature="0"
         id="path130"
         style="fill:none;stroke:#000000;stroke-width:0.5;stroke-linecap:round;stroke-linejoin:miter;stroke-miterlimit:4;stroke-dasharray:none;stroke-opacity:1"
         d="m 434.04,485.924 c -0.879,-3.382 -4.104,-5.469 -7.202,-4.664 -3.096,0.806 -4.893,4.202 -4.012,7.583 0.878,3.382 4.104,5.469 7.202,4.663 3.096,-0.806 4.893,-4.201 4.012,-7.582 z" />
      <path
         inkscape:connector-curvature="0"
         id="path132"
         style="fill:#ffffff;fill-opacity:1;fill-rule:nonzero;stroke:none"
         d="m 430.266,492.216 -1,2 c 0,0 -1.667,1.167 -2.334,-1.666 0,0 -2.166,-5.334 -2.166,-8.5 0,0 0,-1.834 2.166,-2.667" />
      <path
         inkscape:connector-curvature="0"
         id="path134"
         style="fill:none;stroke:#000000;stroke-width:0.5;stroke-linecap:round;stroke-linejoin:miter;stroke-miterlimit:4;stroke-dasharray:none;stroke-opacity:1"
         d="m 430.266,492.216 -1,2 c 0,0 -1.667,1.167 -2.334,-1.666 0,0 -2.166,-5.334 -2.166,-8.5 0,0 0,-1.834 2.166,-2.667" />
      <path
         inkscape:connector-curvature="0"
         id="path136"
         style="fill:#ffffff;fill-opacity:1;fill-rule:nonzero;stroke:none"
         d="m 428.527,493.211 c -0.188,-0.29 -0.388,-0.669 -0.595,-1.161 0,0 -1.951,-4.805 -2.15,-8.001" />
      <path
         inkscape:connector-curvature="0"
         id="path138"
         style="fill:none;stroke:#000000;stroke-width:0.5;stroke-linecap:round;stroke-linejoin:miter;stroke-miterlimit:4;stroke-dasharray:none;stroke-opacity:1"
         d="m 428.527,493.211 c -0.188,-0.29 -0.388,-0.669 -0.595,-1.161 0,0 -1.951,-4.805 -2.15,-8.001" />
      <path
         inkscape:connector-curvature="0"
         id="path140"
         style="fill:#ffffff;fill-opacity:1;fill-rule:nonzero;stroke:none"
         d="m 430.266,492.55 c 0,0 0.333,-1.334 0,-2 0,0 -1.667,-5.834 -1.667,-7.5" />
      <path
         inkscape:connector-curvature="0"
         id="path142"
         style="fill:none;stroke:#000000;stroke-width:0.25;stroke-linecap:round;stroke-linejoin:miter;stroke-miterlimit:4;stroke-dasharray:none;stroke-opacity:1"
         d="m 430.266,492.55 c 0,0 0.333,-1.334 0,-2 0,0 -1.667,-5.834 -1.667,-7.5" />
      <path
         inkscape:connector-curvature="0"
         id="path144"
         style="fill:none;stroke:#000000;stroke-width:0.5;stroke-linecap:round;stroke-linejoin:round;stroke-miterlimit:4;stroke-dasharray:none;stroke-opacity:1"
         d="m 405.433,467.216 155,-19" />
      <path
         inkscape:connector-curvature="0"
         id="path146"
         style="fill:none;stroke:#000000;stroke-width:0.25;stroke-linecap:round;stroke-linejoin:round;stroke-miterlimit:4;stroke-dasharray:none;stroke-opacity:1"
         d="m 552.909,473.456 c -0.354,-6.371 -7.196,-11.147 -15.284,-10.666 -8.086,0.481 -14.355,6.036 -14.002,12.407 0.354,6.372 7.196,11.147 15.284,10.666 8.087,-0.48 14.355,-6.035 14.002,-12.407 z m -28.832,-11.111 c -5.994,3.166 -10.416,8.239 -9.38,13.565 0.509,2.624 0.465,2.845 2.146,5.631 m 25.891,-22.496 c -1.775,-0.191 -3.509,-0.473 -5.391,-0.347 -3.875,0.258 -1.55,0.086 -5.769,0.775 m 30.14,16.534 c 0.172,-2.756 0.135,-0.17 0.121,-2.485 -0.035,-6.04 -5.116,-10.518 -12.435,-13.016 m -30.699,23.423 c 3.67,3.936 13.183,6.901 20.596,6.61 8.208,-0.323 16.82,-3.251 21.556,-11.776" />
      <path
         inkscape:connector-curvature="0"
         id="path148"
         style="fill:none;stroke:#000000;stroke-width:0.5;stroke-linecap:butt;stroke-linejoin:miter;stroke-miterlimit:4;stroke-dasharray:none;stroke-opacity:1"
         d="m 547.161,474.415 c 0,-5.128 -4.05,-9.286 -9.047,-9.286 -4.997,0 -9.048,4.158 -9.048,9.286 0,5.128 4.051,9.285 9.048,9.285 4.997,0 9.047,-4.157 9.047,-9.285 z" />
      <path
         inkscape:connector-curvature="0"
         id="path150"
         style="fill:none;stroke:#000000;stroke-width:0.25;stroke-linecap:round;stroke-linejoin:round;stroke-miterlimit:4;stroke-dasharray:none;stroke-opacity:1"
         d="m 540.557,483.549 0.38,1.707 m 2.972,-2.908 1.074,1.581 m -0.423,-1.998 1.108,1.557 m -0.558,-2.341 1.327,2.023 m -0.802,-2.608 1.624,1.913 m -0.063,-4.995 3.73,1.264 m -5.184,-10.432 2.339,-2.023 m -3.162,1.327 1.771,-2.15 m -2.529,1.329 1.517,-2.024 m -14.225,16.629 -1.771,1.897 m -1.075,-6.956 -3.793,0.443 m 3.667,-1.454 -4.047,0.316 m 3.92,-1.327 -3.857,0.062 m 4.806,-3.983 -3.162,-1.454 m 5.312,-1.518 -1.96,-1.707 m 5.563,-0.442 -0.821,-1.518 m 1.454,1.328 -0.38,-1.707 m 6.196,20.169 0.317,1.455" />
      <path
         inkscape:connector-curvature="0"
         id="path152"
         style="fill:none;stroke:#000000;stroke-width:0.5;stroke-linecap:round;stroke-linejoin:miter;stroke-miterlimit:4;stroke-dasharray:none;stroke-opacity:1"
         d="m 511.568,390.55 -6.964,-210.535 m 11.964,210.535 -6.635,-204.5 m 1.937,213.65 -0.237,-7.151" />
      <path
         inkscape:connector-curvature="0"
         id="path154"
         style="fill:none;stroke:#000000;stroke-width:0.25;stroke-linecap:round;stroke-linejoin:miter;stroke-miterlimit:4;stroke-dasharray:none;stroke-opacity:1"
         d="m 545.067,268.789 c -0.989,-0.329 -1.317,0.988 -1.317,0.988 l 8.13,143.457 c 0,0 -0.193,1.198 1.124,2.186 l 5.993,6.432 c 0,0 1.562,1.436 1.542,-0.64 -0.003,-0.297 -7.571,-137.937 -7.571,-137.937 0,0 -0.328,-4.28 -1.316,-5.926 m 7.862,144.036 c -0.482,-8.986 -7.546,-137.443 -7.546,-137.443 0,0 -0.328,-4.28 -1.316,-5.926 m -25.835,-31.727 c -0.989,-0.329 -1.317,0.988 -1.317,0.988 l 6.38,144.457 c 0,0 -0.193,1.198 1.124,2.186 l 5.993,6.432 c 0,0 1.562,1.436 1.542,-0.64 -0.003,-0.297 -5.821,-138.938 -5.821,-138.938 0,0 -0.328,-4.279 -1.316,-5.925 m 6.112,145.036 c -0.482,-8.986 -5.796,-138.443 -5.796,-138.443 0,0 -0.328,-4.28 -1.316,-5.926" />
      <path
         inkscape:connector-curvature="0"
         id="path156"
         style="fill:none;stroke:#000000;stroke-width:0.75;stroke-linecap:round;stroke-linejoin:miter;stroke-miterlimit:4;stroke-dasharray:none;stroke-opacity:1"
         d="m 570.933,473.883 -5,-22.333 c 0,0 -0.667,-1.667 -1.667,-0.667" />
      <text
         id="text168"
         style="font-variant:normal;font-weight:bold;font-size:1.87446547px;font-family:Helvetica;-inkscape-font-specification:Helvetica-Bold;writing-mode:lr-tb;fill:#000000;fill-opacity:1;fill-rule:nonzero;stroke:none"
         transform="matrix(0.96192755,-0.10008186,-0.27330458,-0.98892191,427.016,499.753)">
        <tspan
           id="tspan158"
           y="0"
           x="0">L</tspan>
        <tspan
           id="tspan160"
           y="0.0003748931"
           x="1.1447361">O</tspan>
        <tspan
           id="tspan162"
           y="-0.00018744655"
           x="2.5084097">A</tspan>
        <tspan
           id="tspan164"
           y="0.0003748931"
           x="3.8621488">D</tspan>
        <tspan
           id="tspan166"
           sodipodi:role="line"
           y="-0.00018744655"
           x="5.7364268 6.9865079 7.507422 8.65347">SIZE</tspan>
      </text>
      <text
         id="text198"
         style="font-variant:normal;font-weight:bold;font-size:1.87256444px;font-family:Helvetica;-inkscape-font-specification:Helvetica-Bold;writing-mode:lr-tb;fill:#000000;fill-opacity:1;fill-rule:nonzero;stroke:none"
         transform="matrix(0.9629041,-0.10018347,-0.26984385,-0.97630817,445.436,497.901)">
        <tspan
           id="tspan170"
           y="0"
           x="0">T</tspan>
        <tspan
           id="tspan172"
           y="0.00037451289"
           x="1.1435751">E</tspan>
        <tspan
           id="tspan174"
           y="0.00018725645"
           x="2.3929501">M</tspan>
        <tspan
           id="tspan176"
           y="0"
           x="3.9527962">P</tspan>
        <tspan
           id="tspan178"
           sodipodi:role="line"
           y="0.00074902578"
           x="5.2023587 6.4506102">ER</tspan>
        <tspan
           id="tspan180"
           y="0.00018725645"
           x="7.8037252">A</tspan>
        <tspan
           id="tspan182"
           y="0.00074902578"
           x="8.9856882">T</tspan>
        <tspan
           id="tspan184"
           y="0.00093628222"
           x="10.131323">U</tspan>
        <tspan
           id="tspan186"
           y="0.00056176935"
           x="11.483315">R</tspan>
        <tspan
           id="tspan188"
           y="0.00018725645"
           x="12.83437">E</tspan>
        <tspan
           id="tspan190"
           sodipodi:role="line"
           y="0.10430184"
           x="24.016201 25.472681 26.721308">OPT</tspan>
        <tspan
           id="tspan192"
           y="0.10467635"
           x="27.866194">I</tspan>
        <tspan
           id="tspan194"
           sodipodi:role="line"
           y="0.1044891"
           x="28.387516 29.843435">ON</tspan>
        <tspan
           id="tspan196"
           y="0.10411458"
           x="31.195614">S</tspan>
      </text>
      <text
         id="text208"
         style="font-variant:normal;font-weight:bold;font-size:1.53411305px;font-family:Helvetica;-inkscape-font-specification:Helvetica-Bold;writing-mode:lr-tb;fill:#000000;fill-opacity:1;fill-rule:nonzero;stroke:none"
         transform="matrix(0.96192387,-0.10005781,-0.27331753,-0.98891014,513.96,482.314)">
        <tspan
           id="tspan200"
           sodipodi:role="line"
           y="0"
           x="0 1.1082433 2.2402654">COT</tspan>
        <tspan
           id="tspan202"
           y="0.00030682262"
           x="3.1769948">T</tspan>
        <tspan
           id="tspan204"
           y="0.00061364524"
           x="4.053587">O</tspan>
        <tspan
           id="tspan206"
           sodipodi:role="line"
           y="0.00015341131"
           x="5.24682 6.3550634">NS</tspan>
      </text>
      <text
         id="text298"
         style="font-variant:normal;font-weight:bold;font-size:1.15061569px;font-family:Helvetica;-inkscape-font-specification:Helvetica-Bold;writing-mode:lr-tb;fill:#000000;fill-opacity:1;fill-rule:nonzero;stroke:none"
         transform="matrix(0.96191978,-0.1000334,-0.27333192,-0.98886188,428.236,495.383)">
        <tspan
           id="tspan210"
           y="0"
           x="0">H</tspan>
        <tspan
           id="tspan212"
           y="-0.00023012314"
           x="0.83166504">O</tspan>
        <tspan
           id="tspan214"
           y="0.00023012314"
           x="1.726844">O</tspan>
        <tspan
           id="tspan216"
           y="-0.0003451847"
           x="2.6217928">-</tspan>
        <tspan
           id="tspan218"
           sodipodi:role="line"
           y="0.00023012314"
           x="3.0056384 3.8352323">BO</tspan>
        <tspan
           id="tspan220"
           y="-0.00023012314"
           x="4.6500983">Y</tspan>
        <tspan
           id="tspan222"
           y="0.37682664"
           x="14.5783">W</tspan>
        <tspan
           id="tspan224"
           sodipodi:role="line"
           y="0.37705678"
           x="15.5951 16.42573 17.256359">ARM</tspan>
        <tspan
           id="tspan226"
           y="0.36923257"
           x="28.32885">H</tspan>
        <tspan
           id="tspan228"
           y="0.36900246"
           x="29.160398">O</tspan>
        <tspan
           id="tspan230"
           y="0.36911753"
           x="30.008747">T</tspan>
        <tspan
           id="tspan232"
           y="0.33482918"
           x="35.356003">D</tspan>
        <tspan
           id="tspan234"
           y="0.33574966"
           x="36.186863">E</tspan>
        <tspan
           id="tspan236"
           y="0.33505929"
           x="36.953865">L</tspan>
        <tspan
           id="tspan238"
           sodipodi:role="line"
           y="0.33574966"
           x="37.656891 37.97607">IC</tspan>
        <tspan
           id="tspan240"
           y="0.33563459"
           x="38.807735">A</tspan>
        <tspan
           id="tspan242"
           y="0.33505929"
           x="39.534233">T</tspan>
        <tspan
           id="tspan244"
           y="0.33574966"
           x="40.237263">E</tspan>
        <tspan
           id="tspan246"
           y="0.33482918"
           x="41.005299">S</tspan>
        <tspan
           id="tspan248"
           sodipodi:role="line"
           y="0.43205619"
           x="48.271549 49.09079 49.921417 50.752048">BURL</tspan>
        <tspan
           id="tspan250"
           y="0.43159595"
           x="51.455765">A</tspan>
        <tspan
           id="tspan252"
           y="0.43251643"
           x="52.286625">P</tspan>
        <tspan
           id="tspan254"
           sodipodi:role="line"
           y="16.217928"
           x="29.377865 30.208494">CO</tspan>
        <tspan
           id="tspan256"
           y="16.217354"
           x="31.103329">L</tspan>
        <tspan
           id="tspan258"
           y="16.218042"
           x="31.806355">D</tspan>
        <tspan
           id="tspan260"
           y="15.758372"
           x="14.997585">T</tspan>
        <tspan
           id="tspan262"
           y="15.757912"
           x="15.701187">E</tspan>
        <tspan
           id="tspan264"
           y="15.757222"
           x="16.468187">P</tspan>
        <tspan
           id="tspan266"
           sodipodi:role="line"
           y="15.757452"
           x="17.235533 17.555634">ID</tspan>
        <tspan
           id="tspan268"
           y="12.445635"
           x="-7.3977685">L</tspan>
        <tspan
           id="tspan270"
           sodipodi:role="line"
           y="12.446325"
           x="-6.6947422 -5.8641129 -5.0334835">ARG</tspan>
        <tspan
           id="tspan272"
           y="12.44644"
           x="-4.1373839">E</tspan>
        <tspan
           id="tspan274"
           sodipodi:role="line"
           y="16.932232"
           x="1.123001 1.9536304">RE</tspan>
        <tspan
           id="tspan276"
           y="16.93338"
           x="2.7212062">G</tspan>
        <tspan
           id="tspan278"
           sodipodi:role="line"
           y="16.932806"
           x="3.6161549 4.4467845">UL</tspan>
        <tspan
           id="tspan280"
           y="16.932461"
           x="5.1494656">A</tspan>
        <tspan
           id="tspan282"
           y="16.933266"
           x="5.9813604">R</tspan>
        <tspan
           id="tspan284"
           y="3.1555636"
           x="-8.7817287">E</tspan>
        <tspan
           id="tspan286"
           sodipodi:role="line"
           y="3.1557937"
           x="-8.0143833 -7.2461176">XT</tspan>
        <tspan
           id="tspan288"
           sodipodi:role="line"
           y="3.1556785"
           x="-6.5434365 -5.7128072">RA</tspan>
        <tspan
           id="tspan290"
           y="4.3067546"
           x="-8.8454733">L</tspan>
        <tspan
           id="tspan292"
           y="4.3065243"
           x="-8.1427927">A</tspan>
        <tspan
           id="tspan294"
           sodipodi:role="line"
           y="4.3062944"
           x="-7.3112421 -6.4806128">RG</tspan>
        <tspan
           id="tspan296"
           y="4.3066397"
           x="-5.585434">E</tspan>
      </text>
      <text
         id="text336"
         style="font-variant:normal;font-weight:bold;font-size:1.53411305px;font-family:Helvetica;-inkscape-font-specification:Helvetica-Bold;writing-mode:lr-tb;fill:#000000;fill-opacity:1;fill-rule:nonzero;stroke:none"
         transform="matrix(0.96192387,-0.10005781,-0.27331753,-0.98891014,557.036,477.226)">
        <tspan
           id="tspan300"
           y="0"
           x="0">E</tspan>
        <tspan
           id="tspan302"
           y="-0.00046023392"
           x="1.0238671">A</tspan>
        <tspan
           id="tspan304"
           y="-0.00015341131"
           x="2.1310365">S</tspan>
        <tspan
           id="tspan306"
           sodipodi:role="line"
           y="-0.00061364524"
           x="3.1549037 4.6041803 5.7124233 6.8197465 7.9279895">YCARE</tspan>
        <tspan
           id="tspan308"
           y="19.706602"
           x="-28.95347">P</tspan>
        <tspan
           id="tspan310"
           y="19.706142"
           x="-27.929604">R</tspan>
        <tspan
           id="tspan312"
           y="19.706297"
           x="-26.822279">E</tspan>
        <tspan
           id="tspan314"
           y="19.70599"
           x="-25.799486">W</tspan>
        <tspan
           id="tspan316"
           sodipodi:role="line"
           y="19.70645"
           x="-24.44379 -23.335548">AS</tspan>
        <tspan
           id="tspan318"
           y="19.706142"
           x="-22.312601">H</tspan>
        <tspan
           id="tspan320"
           sodipodi:role="line"
           y="18.956116"
           x="-9.5932693 -8.4850264">DE</tspan>
        <tspan
           id="tspan322"
           y="18.955961"
           x="-7.4622331">L</tspan>
        <tspan
           id="tspan324"
           y="18.956116"
           x="-6.5255036">I</tspan>
        <tspan
           id="tspan326"
           y="18.955347"
           x="-6.0973325">C</tspan>
        <tspan
           id="tspan328"
           y="18.956575"
           x="-4.9898562">A</tspan>
        <tspan
           id="tspan330"
           y="18.955502"
           x="-4.0202966">T</tspan>
        <tspan
           id="tspan332"
           y="18.955809"
           x="-3.0835674">E</tspan>
        <tspan
           id="tspan334"
           y="18.956423"
           x="-2.0603139">S</tspan>
      </text>
    </g>
  </g>
</svg>
